<?xml version="1.0" encoding="utf-8"?>
<!-- Generator: Adobe Illustrator 14.0.0, SVG Export Plug-In . SVG Version: 6.00 Build 43363)  -->
<!DOCTYPE svg PUBLIC "-//W3C//DTD SVG 1.1//EN" "http://www.w3.org/Graphics/SVG/1.1/DTD/svg11.dtd">
<svg version="1.1" id="レイヤー_1" xmlns="http://www.w3.org/2000/svg" xmlns:xlink="http://www.w3.org/1999/xlink" x="0px"
	 y="0px" width="128px" height="128px" viewBox="0 0 128 128" enable-background="new 0 0 128 128" xml:space="preserve">
<g>
	<defs>
		<path id="SVGID_1_" d="M0,0v128h128V0H0z M93.787,116.161L15.192,25.391l16.332-14.142l78.596,90.77L93.787,116.161z"/>
	</defs>
	<clipPath id="SVGID_2_">
		<use xlink:href="#SVGID_1_"  overflow="visible"/>
	</clipPath>
	<path clip-path="url(#SVGID_2_)" d="M113.496,48.729c-0.002-0.161-0.017-0.322-0.048-0.479c-0.007-0.031-0.018-0.06-0.024-0.091
		c-0.03-0.122-0.066-0.242-0.112-0.358c-0.021-0.053-0.046-0.104-0.07-0.156c-0.043-0.091-0.092-0.181-0.145-0.267
		c-0.031-0.049-0.062-0.096-0.096-0.143c-0.061-0.085-0.129-0.166-0.201-0.244c-0.035-0.038-0.066-0.077-0.104-0.112
		c-0.087-0.084-0.183-0.161-0.283-0.234c-0.028-0.021-0.054-0.045-0.084-0.065c-0.005-0.003-0.009-0.008-0.014-0.011L93.765,34.409
		c-0.428-0.281-0.928-0.43-1.439-0.43h-6.412l-0.761-13.448c-0.079-1.39-1.229-2.477-2.621-2.477H46.47
		c-1.392,0-2.542,1.087-2.621,2.477l-0.761,13.448h-6.413c-0.511,0-1.011,0.149-1.439,0.43l-18.55,12.162
		c-0.004,0.003-0.009,0.007-0.013,0.01c-0.033,0.022-0.062,0.05-0.094,0.073c-0.096,0.07-0.189,0.144-0.273,0.225
		c-0.038,0.037-0.072,0.078-0.108,0.117c-0.071,0.077-0.137,0.156-0.198,0.24c-0.034,0.047-0.065,0.095-0.096,0.145
		c-0.054,0.086-0.101,0.174-0.144,0.265c-0.025,0.052-0.05,0.103-0.071,0.156c-0.046,0.116-0.082,0.235-0.111,0.357
		c-0.007,0.031-0.02,0.061-0.026,0.093c-0.031,0.156-0.045,0.317-0.048,0.478c0,0.013-0.004,0.024-0.004,0.037V83.94
		c0,1.45,1.175,2.625,2.625,2.625h13.246l-0.594,1.054c-0.343,0.608-0.4,1.322-0.193,1.974v7.824c0,1.305,1.058,2.363,2.363,2.363
		h63.107c1.304,0,2.362-1.059,2.362-2.363v-7.824c0.207-0.651,0.15-1.365-0.193-1.974l-0.594-1.054h13.246
		c1.45,0,2.625-1.175,2.625-2.625V48.766C113.5,48.754,113.497,48.742,113.496,48.729z M48.95,23.304h31.101l0.604,10.675h-32.31
		L48.95,23.304z M37.459,39.229h8.109h37.865h8.109l10.542,6.912H26.917L37.459,39.229z M40.913,79.782h47.174l3.704,6.569H37.208
		L40.913,79.782z M35.309,95.055v-3.722H93.69v3.722H35.309z M108.25,81.315H94.67l-2.637-4.678v-6.259
		c0-1.375-1.116-2.491-2.491-2.491H39.458c-1.375,0-2.49,1.116-2.49,2.491v6.259l-2.637,4.678H20.75V51.391h87.5V81.315z"/>
	<path clip-path="url(#SVGID_2_)" d="M92.325,64.771h11.813c0.672,0,1.217-0.545,1.217-1.217v-7c0-0.672-0.545-1.217-1.217-1.217
		H92.325c-0.672,0-1.218,0.545-1.218,1.217v7C91.107,64.226,91.653,64.771,92.325,64.771z"/>
</g>
<g>
	<path d="M64,0C28.654,0,0,28.654,0,64c0,35.347,28.654,64,64,64c35.347,0,64-28.653,64-64C128,28.654,99.347,0,64,0z M64,118.4
		C33.956,118.4,9.6,94.045,9.6,64C9.6,33.956,33.956,9.6,64,9.6c30.045,0,54.4,24.355,54.4,54.4C118.4,94.045,94.045,118.4,64,118.4
		z"/>
	<rect x="1.833" y="59.667" transform="matrix(0.6546 0.756 -0.756 0.6546 70.7282 -25.6341)" width="123.166" height="9.833"/>
</g>
</svg>
